<svg xmlns="http://www.w3.org/2000/svg" xmlns:xlink="http://www.w3.org/1999/xlink" viewBox="0 0 252 252"><defs><style>.cls-1{fill:url(#Gradiente_sem_nome);}.cls-2{fill:url(#Gradiente_sem_nome-2);}.cls-3{fill:#fff;}.cls-4{fill:url(#Gradiente_sem_nome-3);}.cls-5{fill:url(#Gradiente_sem_nome-4);}.cls-6{fill:url(#Gradiente_sem_nome-5);}.cls-7{fill:url(#Gradiente_sem_nome-6);}.cls-8{fill:url(#Gradiente_sem_nome-7);}.cls-9{fill:url(#Gradiente_sem_nome-8);}.cls-10{fill:url(#Gradiente_sem_nome-10);}.cls-11{fill:url(#Gradiente_sem_nome-11);}.cls-12{fill:url(#Gradiente_sem_nome-14);}.cls-13{fill:url(#Gradiente_sem_nome-15);}</style><linearGradient id="Gradiente_sem_nome" x1="19.84" y1="100.59" x2="1487.65" y2="100.59" gradientTransform="matrix(1, 0, 0, -1, 0, 142)" gradientUnits="userSpaceOnUse"><stop offset="0" stop-color="#15183a"/><stop offset="0.11" stop-color="#191c43"/><stop offset="0.29" stop-color="#23265d"/><stop offset="0.51" stop-color="#343886"/><stop offset="0.78" stop-color="#4b4fbf"/><stop offset="1" stop-color="#6065f4"/></linearGradient><linearGradient id="Gradiente_sem_nome-2" x1="20.01" y1="55.98" x2="1487.82" y2="55.98" xlink:href="#Gradiente_sem_nome"/><linearGradient id="Gradiente_sem_nome-3" x1="20.08" y1="0.19" x2="1487.87" y2="0.19" xlink:href="#Gradiente_sem_nome"/><linearGradient id="Gradiente_sem_nome-4" x1="20.17" y1="-23.43" x2="1491.26" y2="-23.43" xlink:href="#Gradiente_sem_nome"/><linearGradient id="Gradiente_sem_nome-5" x1="20.64" y1="-20.5" x2="1485.14" y2="-20.5" xlink:href="#Gradiente_sem_nome"/><linearGradient id="Gradiente_sem_nome-6" x1="20.07" y1="26.11" x2="1487.88" y2="26.11" xlink:href="#Gradiente_sem_nome"/><linearGradient id="Gradiente_sem_nome-7" x1="20.07" y1="26.11" x2="1487.88" y2="26.11" xlink:href="#Gradiente_sem_nome"/><linearGradient id="Gradiente_sem_nome-8" x1="20.28" y1="-43.73" x2="1488.09" y2="-43.73" xlink:href="#Gradiente_sem_nome"/><linearGradient id="Gradiente_sem_nome-10" x1="20.32" y1="-57.21" x2="1488.13" y2="-57.21" xlink:href="#Gradiente_sem_nome"/><linearGradient id="Gradiente_sem_nome-11" x1="20.36" y1="-69.76" x2="1488.17" y2="-69.76" xlink:href="#Gradiente_sem_nome"/><linearGradient id="Gradiente_sem_nome-14" x1="20.45" y1="-95.91" x2="1488" y2="-95.91" xlink:href="#Gradiente_sem_nome"/><linearGradient id="Gradiente_sem_nome-15" x1="20.46" y1="-95.91" x2="1488.01" y2="-95.91" xlink:href="#Gradiente_sem_nome"/></defs><g id="Camada_2" data-name="Camada 2"><g id="Chapéu"><polygon id="Chapéu-2" data-name="Chapéu" class="cls-1" points="42.63 39.31 125.95 2.23 205.53 39.31 124.83 80.59 59.48 47.92 59.48 72.17 49.93 72.17 49.93 43.05 42.63 39.31"/><polygon class="cls-2" points="49.93 76.01 46.56 96.04 63.04 96.04 59.48 76.01 49.93 76.01"/></g><path class="cls-3" d="M87.38,223,74.93,205,78,167.1l13.76-7.86,12.73-2.81,18.17-2.81s12.64.84,13.48,0,15.45,0,15.45,0l7.49,6.18,9.92,5.61s2.25,10.68,2.53,11.8,3.27,16.57,3.27,16.57V223Z"/><path class="cls-4" d="M68.94,61.21,125,91.36a2.8,2.8,0,0,0,2.43,0l56.83-30.24A2.55,2.55,0,0,1,188,63.37V78.72a2.51,2.51,0,0,0,1,2.06,56.14,56.14,0,0,1,16.39,17.41,58.2,58.2,0,0,1,7.11,17.89,2.46,2.46,0,0,1-2.06,2.9c-31.08,6.36-40.16,66.66-19.1,88.85a2.5,2.5,0,0,1,0,3.55l-10.48,10.68a2.64,2.64,0,0,1-1.87.74H163.87c37.73-77.51-105.14-98.58-76.68,0h-14a2.56,2.56,0,0,1-1.77-.74L60.89,211.48a2.66,2.66,0,0,1-.28-3.28c16.75-23.78,14.51-68.06-19.38-88.85A2.65,2.65,0,0,1,40,116.73c1.22-7,3.18-12.64,6.08-16.1a2.63,2.63,0,0,1,2.06-.84H65.57A2.54,2.54,0,0,0,68.1,97L65.19,63.65A2.51,2.51,0,0,1,68.94,61.21Z"/><path class="cls-5" d="M37.57,126.09c23.6,4.22,29.5,52.81,22.38,74.53a6.35,6.35,0,0,1-8.71,3.74c-7-3.65-15.82-13.76-20.41-21-11.23-17.32-16.57-44.56-5-54C26.43,128.9,31.49,124.88,37.57,126.09Z"/><path class="cls-6" d="M214.43,123c-23.88,4.22-29.68,54.12-22.1,75.46a5.62,5.62,0,0,0,7.58,3.28c7.21-3.18,16.48-13.86,21.26-21.35,11.23-17.32,16.57-44.56,5-54C225.66,125.81,220.51,121.79,214.43,123Z"/><circle class="cls-3" cx="95.71" cy="115.89" r="28.37"/><circle class="cls-7" cx="101.61" cy="115.89" r="6.83"/><circle class="cls-3" cx="159.1" cy="115.89" r="28.37"/><circle class="cls-8" cx="149.45" cy="115.89" r="6.83"/><polygon class="cls-3" points="120.62 142.76 126.89 136.02 134.1 142.76 126.89 149.5 120.62 142.76"/><polygon class="cls-9" points="97.87 185.73 104.14 178.99 111.35 185.73 104.14 192.47 97.87 185.73"/><polygon class="cls-9" points="142.71 185.73 148.98 178.99 156.19 185.73 148.98 192.47 142.71 185.73"/><polygon class="cls-10" points="130.82 199.21 137.09 192.47 144.3 199.21 137.09 205.95 130.82 199.21"/><polygon class="cls-11" points="120.62 211.76 126.89 205.02 134.1 211.76 126.89 218.5 120.62 211.76"/><polygon class="cls-9" points="120.62 185.73 126.89 178.99 134.1 185.73 126.89 192.47 120.62 185.73"/><polygon class="cls-10" points="111.35 199.21 117.62 192.47 124.83 199.21 117.62 205.95 111.35 199.21"/><path class="cls-12" d="M113.41,235.16c.09,8.43-4.4,13.3-16.67,14.61-9.08,0-19.28-2.53-20.22-9-1.87-11.23,5.71-13.76,16.67-14.61C103.39,225.33,112.38,228.7,113.41,235.16Z"/><path class="cls-13" d="M174.92,235.16c.09,8.43-4.4,13.3-16.67,14.61-9.08,0-19.28-2.53-20.22-9-1.87-11.23,5.71-13.76,16.66-14.61C164.9,225.33,173.89,228.7,174.92,235.16Z"/></g></svg>