<svg xmlns="http://www.w3.org/2000/svg" viewBox="0 0 252 252"><defs><style>.cls-1{fill:#fff;}.cls-2{fill:#15183a;}</style></defs><g id="Camada_2" data-name="Camada 2"><g id="Chapéu"><polygon id="Chapéu-2" data-name="Chapéu" class="cls-1" points="42.63 39.31 125.95 2.23 205.53 39.31 124.83 80.59 59.48 47.92 59.48 72.17 49.93 72.17 49.93 43.05 42.63 39.31"/><polygon class="cls-1" points="49.93 76.01 46.56 96.04 63.04 96.04 59.48 76.01 49.93 76.01"/></g><path class="cls-2" d="M87.38,223,74.93,205,78,167.1l13.76-7.86,12.73-2.81,18.17-2.81s12.64.84,13.48,0,15.45,0,15.45,0l7.49,6.18,9.92,5.61s2.25,10.68,2.53,11.8,3.27,16.57,3.27,16.57V223Z"/><path class="cls-1" d="M68.94,61.21,125,91.36a2.8,2.8,0,0,0,2.43,0l56.83-30.24A2.55,2.55,0,0,1,188,63.37V78.72a2.51,2.51,0,0,0,1,2.06,56.14,56.14,0,0,1,16.39,17.41,58.2,58.2,0,0,1,7.11,17.89,2.46,2.46,0,0,1-2.06,2.9c-31.08,6.36-40.16,66.66-19.1,88.85a2.5,2.5,0,0,1,0,3.55l-10.48,10.68a2.64,2.64,0,0,1-1.87.74H163.87c37.73-77.51-105.14-98.58-76.68,0h-14a2.56,2.56,0,0,1-1.77-.74L60.89,211.48a2.66,2.66,0,0,1-.28-3.28c16.75-23.78,14.51-68.06-19.38-88.85A2.65,2.65,0,0,1,40,116.73c1.22-7,3.18-12.64,6.08-16.1a2.63,2.63,0,0,1,2.06-.84H65.57A2.54,2.54,0,0,0,68.1,97L65.19,63.65A2.51,2.51,0,0,1,68.94,61.21Z"/><path class="cls-1" d="M37.57,126.09c23.6,4.22,29.5,52.81,22.38,74.53a6.35,6.35,0,0,1-8.71,3.74c-7-3.65-15.82-13.76-20.41-21-11.23-17.32-16.57-44.56-5-54C26.43,128.9,31.49,124.88,37.57,126.09Z"/><path class="cls-1" d="M214.43,123c-23.88,4.22-29.68,54.12-22.1,75.46a5.62,5.62,0,0,0,7.58,3.28c7.21-3.18,16.48-13.86,21.26-21.35,11.23-17.32,16.57-44.56,5-54C225.66,125.81,220.51,121.79,214.43,123Z"/><circle class="cls-2" cx="95.71" cy="115.89" r="28.37"/><circle class="cls-1" cx="101.61" cy="115.89" r="6.83"/><circle class="cls-2" cx="159.1" cy="115.89" r="28.37"/><circle class="cls-1" cx="149.45" cy="115.89" r="6.83"/><polygon class="cls-2" points="120.62 142.76 126.89 136.02 134.1 142.76 126.89 149.5 120.62 142.76"/><polygon class="cls-1" points="97.87 185.73 104.14 178.99 111.35 185.73 104.14 192.47 97.87 185.73"/><polygon class="cls-1" points="142.71 185.73 148.98 178.99 156.19 185.73 148.98 192.47 142.71 185.73"/><polygon class="cls-1" points="130.82 199.21 137.09 192.47 144.3 199.21 137.09 205.95 130.82 199.21"/><polygon class="cls-1" points="120.62 211.76 126.89 205.02 134.1 211.76 126.89 218.5 120.62 211.76"/><polygon class="cls-1" points="120.62 185.73 126.89 178.99 134.1 185.73 126.89 192.47 120.62 185.73"/><polygon class="cls-1" points="111.35 199.21 117.62 192.47 124.83 199.21 117.62 205.95 111.35 199.21"/><path class="cls-1" d="M113.41,235.16c.09,8.43-4.4,13.3-16.67,14.61-9.08,0-19.28-2.53-20.22-9-1.87-11.23,5.71-13.76,16.67-14.61C103.39,225.33,112.38,228.7,113.41,235.16Z"/><path class="cls-1" d="M174.92,235.16c.09,8.43-4.4,13.3-16.67,14.61-9.08,0-19.28-2.53-20.22-9-1.87-11.23,5.71-13.76,16.66-14.61C164.9,225.33,173.89,228.7,174.92,235.16Z"/></g></svg>