<svg id="Camada_1" data-name="Camada 1" xmlns="http://www.w3.org/2000/svg" xmlns:xlink="http://www.w3.org/1999/xlink" viewBox="0 0 160 27"><defs><style>.cls-1{fill:url(#Gradiente_sem_nome_54);}.cls-2{fill:url(#Gradiente_sem_nome_55);}.cls-3{fill:url(#Gradiente_sem_nome_56);}.cls-4{fill:url(#Gradiente_sem_nome_57);}.cls-5{fill:url(#Gradiente_sem_nome_58);}.cls-6{fill:url(#Gradiente_sem_nome_59);}.cls-7{fill:url(#Gradiente_sem_nome_60);}.cls-8{fill:url(#Gradiente_sem_nome_61);}.cls-9{fill:url(#Gradiente_sem_nome_62);}.cls-10{fill:#fff;}.cls-11{fill:url(#Gradiente_sem_nome_63);}.cls-12{fill:url(#Gradiente_sem_nome_64);}.cls-13{fill:url(#Gradiente_sem_nome_65);}.cls-14{fill:url(#Gradiente_sem_nome_66);}.cls-15{fill:url(#Gradiente_sem_nome_67);}.cls-16{fill:url(#Gradiente_sem_nome_68);}.cls-17{fill:url(#Gradiente_sem_nome_70);}.cls-18{fill:url(#Gradiente_sem_nome_71);}.cls-19{fill:url(#Gradiente_sem_nome_74);}.cls-20{fill:url(#Gradiente_sem_nome_75);}</style><linearGradient id="Gradiente_sem_nome_54" x1="1.6" y1="130.14" x2="158.38" y2="130.14" gradientTransform="matrix(1, 0, 0, -1, 0, 142)" gradientUnits="userSpaceOnUse"><stop offset="0" stop-color="#15183a"/><stop offset="0.11" stop-color="#191c43"/><stop offset="0.29" stop-color="#23265d"/><stop offset="0.51" stop-color="#343886"/><stop offset="0.78" stop-color="#4b4fbf"/><stop offset="1" stop-color="#6065f4"/></linearGradient><linearGradient id="Gradiente_sem_nome_55" x1="1.64" y1="127.85" x2="158.26" y2="127.85" xlink:href="#Gradiente_sem_nome_54"/><linearGradient id="Gradiente_sem_nome_56" x1="1.59" y1="127.84" x2="158.37" y2="127.84" xlink:href="#Gradiente_sem_nome_54"/><linearGradient id="Gradiente_sem_nome_57" x1="1.81" y1="130.11" x2="158.2" y2="130.11" xlink:href="#Gradiente_sem_nome_54"/><linearGradient id="Gradiente_sem_nome_58" x1="1.56" y1="130.02" x2="158.34" y2="130.02" xlink:href="#Gradiente_sem_nome_54"/><linearGradient id="Gradiente_sem_nome_59" x1="1.76" y1="127.79" x2="158.32" y2="127.79" xlink:href="#Gradiente_sem_nome_54"/><linearGradient id="Gradiente_sem_nome_60" x1="1.76" y1="127.86" x2="158.36" y2="127.86" xlink:href="#Gradiente_sem_nome_54"/><linearGradient id="Gradiente_sem_nome_61" x1="1.56" y1="137.54" x2="158.34" y2="137.54" xlink:href="#Gradiente_sem_nome_54"/><linearGradient id="Gradiente_sem_nome_62" x1="1.57" y1="132.77" x2="158.36" y2="132.77" xlink:href="#Gradiente_sem_nome_54"/><linearGradient id="Gradiente_sem_nome_63" x1="1.58" y1="126.81" x2="158.36" y2="126.81" xlink:href="#Gradiente_sem_nome_54"/><linearGradient id="Gradiente_sem_nome_64" x1="1.59" y1="124.29" x2="158.72" y2="124.29" xlink:href="#Gradiente_sem_nome_54"/><linearGradient id="Gradiente_sem_nome_65" x1="1.64" y1="124.6" x2="158.07" y2="124.6" xlink:href="#Gradiente_sem_nome_54"/><linearGradient id="Gradiente_sem_nome_66" x1="1.58" y1="129.58" x2="158.36" y2="129.58" xlink:href="#Gradiente_sem_nome_54"/><linearGradient id="Gradiente_sem_nome_67" x1="1.58" y1="129.58" x2="158.36" y2="129.58" xlink:href="#Gradiente_sem_nome_54"/><linearGradient id="Gradiente_sem_nome_68" x1="1.6" y1="122.12" x2="158.38" y2="122.12" xlink:href="#Gradiente_sem_nome_54"/><linearGradient id="Gradiente_sem_nome_70" x1="1.61" y1="120.68" x2="158.39" y2="120.68" xlink:href="#Gradiente_sem_nome_54"/><linearGradient id="Gradiente_sem_nome_71" x1="1.61" y1="119.34" x2="158.39" y2="119.34" xlink:href="#Gradiente_sem_nome_54"/><linearGradient id="Gradiente_sem_nome_74" x1="1.62" y1="116.55" x2="158.37" y2="116.55" xlink:href="#Gradiente_sem_nome_54"/><linearGradient id="Gradiente_sem_nome_75" x1="1.62" y1="116.55" x2="158.38" y2="116.55" xlink:href="#Gradiente_sem_nome_54"/></defs><g id="Camada_3" data-name="Camada 3"><path class="cls-1" d="M47.13,18.13,41.56,4.83a1,1,0,0,0-1-.69,1,1,0,0,0-1,.69L34.06,18.1a1.19,1.19,0,0,0-.1.45,1,1,0,0,0,.29.72.92.92,0,0,0,.72.31,1,1,0,0,0,.55-.17,1.2,1.2,0,0,0,.4-.46l.73-1.79h0l0-.05.38-.93h0l.69-1.7h0l.46-1.13h0l2.42-5.9L43,13.22l1.19,3h0L45.25,19a.93.93,0,0,0,.39.46,1.07,1.07,0,0,0,.56.17,1,1,0,0,0,.73-.3,1,1,0,0,0,.3-.71A1.18,1.18,0,0,0,47.13,18.13Z"/><path class="cls-2" d="M57,18.94a5.06,5.06,0,0,1-2-2,5.62,5.62,0,0,1-.7-2.8A5.93,5.93,0,0,1,55,11.33a4.87,4.87,0,0,1,1.91-2,5.46,5.46,0,0,1,2.77-.7,4.91,4.91,0,0,1,3.88,1.78.76.76,0,0,1,.2.51.87.87,0,0,1-.44.73.77.77,0,0,1-.45.14,1,1,0,0,1-.77-.36A3,3,0,0,0,61,10.69a3.29,3.29,0,0,0-1.33-.25,3.21,3.21,0,0,0-2.47,1,3.82,3.82,0,0,0-1,2.7,4.1,4.1,0,0,0,.44,1.91A3.22,3.22,0,0,0,58,17.38a3.46,3.46,0,0,0,1.83.47A3.26,3.26,0,0,0,62,17.16a1.26,1.26,0,0,1,.73-.28.81.81,0,0,1,.51.18.93.93,0,0,1,.38.71.71.71,0,0,1-.24.53,5,5,0,0,1-3.56,1.32A5.19,5.19,0,0,1,57,18.94Z"/><path class="cls-3" d="M80.37,9.4a5.32,5.32,0,0,1,2,2,5.53,5.53,0,0,1,.72,2.8v4.41a1,1,0,0,1-1,1,.94.94,0,0,1-.72-.29,1,1,0,0,1-.29-.72v-.73a4.7,4.7,0,0,1-1.68,1.32,5.07,5.07,0,0,1-4.72-.24,5,5,0,0,1-1.82-2,5.93,5.93,0,0,1-.66-2.8,5.63,5.63,0,0,1,.71-2.8,5.13,5.13,0,0,1,2-2,5.49,5.49,0,0,1,2.78-.72A5.33,5.33,0,0,1,80.37,9.4Zm-1,8a3.48,3.48,0,0,0,1.26-1.32,3.94,3.94,0,0,0,.45-1.89,4,4,0,0,0-.45-1.9A3.3,3.3,0,0,0,79.4,11a3.46,3.46,0,0,0-4.84,1.33,3.9,3.9,0,0,0-.46,1.9,3.83,3.83,0,0,0,.46,1.89,3.48,3.48,0,0,0,1.26,1.32,3.58,3.58,0,0,0,3.58,0Z"/><path class="cls-4" d="M102.09,4.41a1,1,0,0,1,.28.73v9a5.53,5.53,0,0,1-.72,2.8,5.25,5.25,0,0,1-2,2,5.36,5.36,0,0,1-2.76.72,5.49,5.49,0,0,1-2.78-.72,5.2,5.2,0,0,1-2-2,5.53,5.53,0,0,1-.71-2.8,5.93,5.93,0,0,1,.66-2.8,5,5,0,0,1,1.82-2,4.86,4.86,0,0,1,2.58-.71,5,5,0,0,1,2.14.47,4.93,4.93,0,0,1,1.68,1.32V5.14a1,1,0,0,1,.29-.73,1.08,1.08,0,0,1,1.45,0Zm-3.37,13A3.51,3.51,0,0,0,100,16.06a4,4,0,0,0,.45-1.9,3.94,3.94,0,0,0-.45-1.89A3.33,3.33,0,0,0,98.72,11a3.47,3.47,0,0,0-4.84,1.32,3.83,3.83,0,0,0-.46,1.89,3.9,3.9,0,0,0,.46,1.9,3.51,3.51,0,0,0,4.84,1.33Z"/><path class="cls-5" d="M112.18,6.62a1.24,1.24,0,0,1-.38-.92,1.28,1.28,0,0,1,.38-.92,1.31,1.31,0,0,1,2.23.92,1.25,1.25,0,0,1-.39.92,1.3,1.3,0,0,1-1.84,0Zm.2,12.67a1,1,0,0,1-.29-.72V9.77a1,1,0,0,1,.29-.73,1,1,0,0,1,.72-.28,1,1,0,0,1,.73.28,1,1,0,0,1,.28.73v8.8a1,1,0,0,1-1,1A1,1,0,0,1,112.38,19.29Z"/><path class="cls-6" d="M133.48,9a1,1,0,0,1,.28.73v8.82a1,1,0,1,1-2,0v-.22a4.39,4.39,0,0,1-1.5,1,5,5,0,0,1-1.86.35,5.07,5.07,0,0,1-2.45-.59,4.17,4.17,0,0,1-1.7-1.73,5.69,5.69,0,0,1-.61-2.74V9.75a1,1,0,1,1,2,0v4.86A3.19,3.19,0,0,0,126.5,17a3.18,3.18,0,0,0,2.28.82,3.29,3.29,0,0,0,1.51-.34,2.66,2.66,0,0,0,1.07-.91,2.21,2.21,0,0,0,.38-1.28V9.75A1,1,0,0,1,132,9a1,1,0,0,1,.72-.28A1,1,0,0,1,133.48,9Z"/><path class="cls-7" d="M157.43,9.79a4.39,4.39,0,0,1,1.06,3.14v5.65a1,1,0,0,1-.28.72,1,1,0,0,1-.73.29.94.94,0,0,1-.72-.29,1,1,0,0,1-.29-.72V12.93a2.55,2.55,0,0,0-.6-1.83,2.12,2.12,0,0,0-1.61-.62,2.21,2.21,0,0,0-1.69.71,2.56,2.56,0,0,0-.66,1.82v5.58a1,1,0,0,1-.28.72,1,1,0,0,1-.73.29.94.94,0,0,1-.72-.29,1,1,0,0,1-.29-.72V12.94a2.55,2.55,0,0,0-.6-1.83,2.12,2.12,0,0,0-1.61-.62,2.24,2.24,0,0,0-1.71.71,2.56,2.56,0,0,0-.66,1.82V18.6a1,1,0,0,1-.28.72,1,1,0,0,1-.73.29.94.94,0,0,1-.72-.29,1,1,0,0,1-.29-.72V9.8a1,1,0,0,1,.29-.73,1,1,0,0,1,.72-.28,1,1,0,0,1,.71.27,1,1,0,0,1,.3.7,3.59,3.59,0,0,1,1.23-.8,4.1,4.1,0,0,1,1.54-.29,4,4,0,0,1,1.81.41,3.48,3.48,0,0,1,1.31,1.16,4.2,4.2,0,0,1,1.48-1.15,4.56,4.56,0,0,1,2-.42A3.58,3.58,0,0,1,157.43,9.79Z"/><g id="Chapéu"><polygon id="Chapéu-2" data-name="Chapéu" class="cls-8" points="3.99 4.24 12.89 0.28 21.39 4.24 12.77 8.65 5.79 5.16 5.79 7.75 4.77 7.75 4.77 4.64 3.99 4.24"/><polygon class="cls-9" points="4.77 8.16 4.41 10.3 6.17 10.3 5.79 8.16 4.77 8.16"/></g><path class="cls-10" d="M8.77,23.86,7.44,21.94l.33-4.05,1.47-.84,1.36-.3,1.94-.3a7.68,7.68,0,0,0,1.44,0,10.08,10.08,0,0,1,1.65,0l.8.66,1.06.6s.24,1.14.27,1.26.35,1.77.35,1.77v3.12Z"/><path class="cls-11" d="M6.8,6.58l6,3.22a.3.3,0,0,0,.26,0l6.07-3.23a.27.27,0,0,1,.4.24V8.45a.27.27,0,0,0,.11.22,6,6,0,0,1,1.75,1.86,6.21,6.21,0,0,1,.76,1.91.26.26,0,0,1-.22.31c-3.32.68-4.29,7.12-2,9.49a.27.27,0,0,1,0,.38l-1.12,1.14a.28.28,0,0,1-.2.08H16.94c4-8.28-11.23-10.53-8.19,0H7.26a.27.27,0,0,1-.19-.08L5.94,22.63a.29.29,0,0,1,0-.35,6.86,6.86,0,0,0-2.07-9.49.29.29,0,0,1-.13-.28,3.73,3.73,0,0,1,.65-1.72.28.28,0,0,1,.22-.09H6.44a.27.27,0,0,0,.27-.3L6.4,6.84A.27.27,0,0,1,6.8,6.58Z"/><path class="cls-12" d="M3.45,13.51c2.52.45,3.15,5.64,2.39,8a.68.68,0,0,1-.93.4,7.3,7.3,0,0,1-2.18-2.24C1.53,17.78,1,14.87,2.2,13.86A1.61,1.61,0,0,1,3.45,13.51Z"/><path class="cls-13" d="M22.34,13.18c-2.55.45-3.17,5.78-2.36,8.06a.6.6,0,0,0,.81.35,6.87,6.87,0,0,0,2.27-2.28c1.2-1.85,1.77-4.76.53-5.77A1.55,1.55,0,0,0,22.34,13.18Z"/><circle class="cls-10" cx="9.66" cy="12.42" r="3.03"/><circle class="cls-14" cx="10.29" cy="12.42" r="0.73"/><circle class="cls-10" cx="16.43" cy="12.42" r="3.03"/><circle class="cls-15" cx="15.4" cy="12.42" r="0.73"/><polygon class="cls-10" points="12.32 15.29 12.99 14.57 13.76 15.29 12.99 16.01 12.32 15.29"/><polygon class="cls-16" points="9.89 19.88 10.56 19.16 11.33 19.88 10.56 20.6 9.89 19.88"/><polygon class="cls-16" points="14.68 19.88 15.35 19.16 16.12 19.88 15.35 20.6 14.68 19.88"/><polygon class="cls-17" points="13.41 21.32 14.08 20.6 14.85 21.32 14.08 22.04 13.41 21.32"/><polygon class="cls-18" points="12.32 22.66 12.99 21.94 13.76 22.66 12.99 23.38 12.32 22.66"/><polygon class="cls-16" points="12.32 19.88 12.99 19.16 13.76 19.88 12.99 20.6 12.32 19.88"/><polygon class="cls-17" points="11.33 21.32 12 20.6 12.77 21.32 12 22.04 11.33 21.32"/><path class="cls-19" d="M11.55,25.16c0,.9-.47,1.42-1.78,1.56-1,0-2.06-.27-2.16-1-.2-1.2.61-1.47,1.78-1.56S11.44,24.47,11.55,25.16Z"/><path class="cls-20" d="M18.12,25.16c0,.9-.47,1.42-1.78,1.56-1,0-2.06-.27-2.16-1-.2-1.2.61-1.47,1.78-1.56S18,24.47,18.12,25.16Z"/></g></svg>